<svg width="223" height="81" viewBox="0 0 223 81" fill="none" xmlns="http://www.w3.org/2000/svg">
<g clip-path="url(#clip0_3170_5374)">
<path d="M52.2743 71.7431H50.1864C49.7385 71.7431 49.3498 71.4395 49.2425 71.0027L41.6535 39.7029L49.9273 18.8241L53.259 70.7214C53.2924 71.2544 52.8889 71.7172 52.3558 71.7505C52.3336 71.7505 52.3114 71.7505 52.2891 71.7505" fill="#E2E2E2"/>
<mask id="mask0_3170_5374" style="mask-type:luminance" maskUnits="userSpaceOnUse" x="41" y="18" width="10" height="25">
<path d="M41.2314 38.1887L42.4642 42.9457L50.2493 23.9141L49.8902 18.5019L41.2314 38.1887Z" fill="white"/>
</mask>
<g mask="url(#mask0_3170_5374)">
<path d="M41.2805 17.8049L39.3528 42.8002L50.1969 43.6365L52.1246 18.6413L41.2805 17.8049Z" fill="url(#paint0_linear_3170_5374)"/>
</g>
<path d="M36.6374 27.2051C35.2159 38.1999 32.2543 42.8051 22.8921 45.3261C16.3731 47.0808 8.68045 46.4366 6.69992 40.5469L0.895302 24.3065C0.484388 23.4514 0.232657 22.5259 0.154917 21.5782C0.106792 19.9234 1.63569 19.0683 2.86103 19.8235C5.29689 21.3043 8.88036 23.1811 12.5082 24.1214C21.9704 25.9909 25.428 16.303 37.4592 13.6894L39.0362 13.4044L36.6374 27.2051Z" fill="#A45826"/>
<mask id="mask1_3170_5374" style="mask-type:luminance" maskUnits="userSpaceOnUse" x="18" y="25" width="19" height="19">
<path d="M29.9369 31.0742L18.2462 34.3726C18.2462 34.3726 22.3183 47.2738 30.7106 41.6024C34.4644 38.5632 34.6495 34.8908 34.6495 34.8908L36.7707 25.873L29.9369 31.0742Z" fill="white"/>
</mask>
<g mask="url(#mask1_3170_5374)">
<path d="M28.9033 16.7129L7.66455 34.9554L26.1072 56.4272L47.3459 38.1848L28.9033 16.7129Z" fill="url(#paint1_linear_3170_5374)"/>
</g>
<path d="M61.5625 20.7677C59.308 17.8542 53.7144 13.101 45.0556 12.9936H44.5706L43.1158 10.5651C45.1889 10.6355 46.5142 10.5651 46.5142 10.5651C46.5142 10.5651 46.9584 8.38471 46.5142 7.16678L47.4841 6.67812L45.9626 3.92389C45.4184 2.92437 44.5743 1.80639 43.6007 1.33254C43.5674 0.71432 43.2602 0.592157 42.6308 0.362637C39.3879 -0.585056 36.8928 0.262685 34.183 3.62033C31.4732 6.97798 28.3118 5.25658 27.9379 5.17514C29.0485 6.90764 31.6398 7.81461 34.7013 6.65591L34.8457 6.60038C34.8716 6.59668 34.9012 6.59668 34.9271 6.60038C35.0493 6.60038 35.1492 6.69663 35.1529 6.8188C35.1529 6.90394 35.1085 6.97798 35.0345 7.0187H35.0086L34.8753 7.09644C30.8032 9.42495 28.0675 7.15567 27.2752 6.77808C27.2863 7.65913 27.6454 8.49947 28.2748 9.11769C28.93 9.82476 30.8254 11.1686 33.8906 10.791H33.9239C34.0239 10.8058 34.0942 10.902 34.0794 11.002C34.072 11.0501 34.0461 11.0908 34.009 11.1204C33.0836 11.5869 31.2474 12.0422 28.3969 10.7206C28.2451 11.1575 29.389 13.9117 34.0276 13.2564C35.5453 12.9677 36.9891 12.3754 38.27 11.5165L38.7549 13.4601L36.7781 25.9281L25.4576 70.5326C25.3243 71.0509 25.639 71.5803 26.1573 71.7136C26.235 71.7321 26.3164 71.7432 26.3979 71.7432H28.371C28.7708 71.7432 29.1299 71.4989 29.2743 71.1287L49.9273 18.8241C53.4812 19.3572 56.2206 21.7376 56.2206 21.7376L52.0226 27.1905C51.6783 27.5755 51.6561 28.1493 51.9671 28.5602L53.7366 29.9595C53.9809 30.2853 54.4474 30.3519 54.7731 30.1039C54.8065 30.078 54.8398 30.0484 54.8694 30.0188C57.5533 27.1498 60.885 23.5108 61.5625 22.2447C61.829 21.7376 61.9142 21.2415 61.5625 20.7862M43.4786 4.76053C44.3226 4.54952 44.6558 5.46389 44.6558 5.46389L43.7155 5.70081L42.7752 5.93774C42.7752 5.93774 42.6345 4.97154 43.4786 4.76053Z" fill="white"/>
<path d="M35.6268 32.7953C35.8415 32.8768 35.9748 33.0952 35.9451 33.3247L35.7934 34.3538L35.5194 36.1678C35.4824 36.4306 35.2418 36.6157 34.9752 36.5787C34.9678 36.5787 34.9604 36.5787 34.953 36.575C32.0433 35.979 28.5709 34.1613 26.757 32.2771L26.6089 31.9476C26.5645 31.9106 26.5608 31.8439 26.6015 31.7995C26.6089 31.7884 26.62 31.781 26.6311 31.7773L30.5774 29.8449C30.6144 29.8264 30.6625 29.8338 30.6921 29.8634C32.1507 31.1258 33.8202 32.1216 35.6268 32.799" fill="white"/>
<path d="M12.5193 24.1217C8.89142 23.1814 5.30795 21.2972 2.87209 19.8238C1.62824 19.0834 0.117852 19.9237 0.165977 21.5785C1.01372 33.4247 32.6911 44.6193 44.5706 13.0011C26.4904 12.568 23.5992 26.3281 12.5193 24.1069" fill="#F79421"/>
</g>
<path d="M75.5 9.81821L75.5 71.1818" stroke="white" stroke-width="1.22727" stroke-linecap="round"/>
<path d="M105.774 29.2946L111.788 19.1235L116.984 35.9722H112.694L110.395 28.4765L105.774 36.4144L101.152 28.4765L98.8528 35.9722H94.5632L99.7594 19.1235L105.774 29.2946ZM124.154 19.831H128.355V35.9722H124.154V19.831ZM151.313 26.5749V33.0977C149.964 34.9109 147.51 36.2375 144.414 36.2375C139.793 36.2375 136.078 32.5671 136.078 27.968C136.078 23.3688 139.638 19.5657 145.033 19.5657C147.554 19.5657 149.478 20.4723 150.429 21.1577V25.9779C149.124 24.6292 147.112 23.4573 145.033 23.4573C142.181 23.4573 140.279 25.2704 140.279 27.968C140.279 30.4665 142.093 32.4123 144.635 32.4123C145.984 32.4123 146.603 32.147 147.178 31.8595V30.0243H143.817L144.79 26.5749H151.313ZM169.388 35.9722V29.4494H163.595V35.9722H159.394V19.831H163.595V26.0001H169.388V19.831H173.589V35.9722H169.388ZM194.825 23.2804H190.027V35.9722H185.826V23.2804H181.028V19.831H194.825V23.2804ZM210.835 35.9722H206.612V29.0956L200.575 19.831H205.307L208.712 25.1819L212.139 19.831H216.871L210.835 29.0956V35.9722Z" fill="white"/>
<path d="M98.15 54.1407C98.15 55.3612 98.7602 55.9715 99.7022 55.9715C100.644 55.9715 101.254 55.3612 101.254 54.1407V48.3431H103.775V54.1274C103.775 56.7144 102.011 58.187 99.7022 58.187C97.3938 58.187 95.6293 56.7144 95.6293 54.1274V48.3431H98.15V54.1407ZM116.324 53.3977V48.3431H118.779V58.4391L112.265 52.9865V58.0278H109.81V47.9318L116.324 53.3977ZM124.947 48.3431H127.468V58.0278H124.947V48.3431ZM137.877 58.4523L132.623 48.3431H135.409L137.943 53.5039L140.437 48.3431H143.131L137.877 58.4523ZM148.302 58.0278V48.3431H154.59V50.4127H150.77V52.0445H154.312V54.1141H150.77V55.9582H154.604V58.0278H148.302ZM162.941 54.6581V58.0278H160.42V48.3431H163.617C165.912 48.3431 167.504 49.5504 167.504 51.5404C167.504 52.7211 166.934 53.61 165.979 54.1274L168.552 58.0278H165.647L163.458 54.6581H162.941ZM162.941 50.3862V52.6813H163.604C164.44 52.6813 164.944 52.2303 164.944 51.5404C164.944 50.8372 164.44 50.3862 163.604 50.3862H162.941ZM173.538 54.7509C174.4 55.3877 175.488 56.0776 176.642 56.0776C177.398 56.0776 177.876 55.8255 177.876 55.3214C177.876 54.8571 177.505 54.6713 177.133 54.5121L175.501 53.7957C174.387 53.2783 173.485 52.6283 173.485 51.1822C173.485 49.3514 175.024 48.1839 176.974 48.1839C178.128 48.1839 179.189 48.6748 179.654 49.1126V51.6465C178.884 50.9036 177.863 50.3066 176.868 50.3066C176.297 50.3066 175.886 50.5188 175.886 50.9699C175.886 51.2485 176.045 51.4342 176.377 51.5802L177.849 52.2037C179.428 52.8803 180.251 53.5967 180.251 55.0561C180.251 57.0328 178.645 58.187 176.589 58.187C175.302 58.187 174.201 57.7227 173.538 57.2451V54.7509ZM185.9 48.3431H188.42V58.0278H185.9V48.3431ZM202.252 50.4127H199.374V58.0278H196.853V50.4127H193.974V48.3431H202.252V50.4127ZM212.964 58.0278H210.43V53.9019L206.808 48.3431H209.647L211.69 51.5536L213.747 48.3431H216.586L212.964 53.9019V58.0278Z" fill="white"/>
<defs>
<linearGradient id="paint0_linear_3170_5374" x1="48.4003" y1="30.8785" x2="38.1689" y2="30.0894" gradientUnits="userSpaceOnUse">
<stop stop-color="#E6E7E8"/>
<stop offset="1" stop-color="#BCBEC0"/>
</linearGradient>
<linearGradient id="paint1_linear_3170_5374" x1="36.4167" y1="28.8337" x2="24.7035" y2="38.8944" gradientUnits="userSpaceOnUse">
<stop stop-color="#88361A"/>
<stop offset="0.55" stop-color="#88361A"/>
<stop offset="1" stop-color="#A45826"/>
</linearGradient>
<clipPath id="clip0_3170_5374">
<rect width="62" height="81" fill="white"/>
</clipPath>
</defs>
</svg>
