<svg xmlns="http://www.w3.org/2000/svg"><defs><font id="icomoon" horiz-adv-x="1024"><font-face ascent="960" descent="-64" units-per-em="1024"/><glyph horiz-adv-x="512"/><glyph d="m854.64 553.36-320-320c-5.792-5.798-13.797-9.385-22.64-9.385s-16.848 3.587-22.64 9.385l-320 320c-5.798 5.792-9.385 13.797-9.385 22.64 0 17.673 14.327 32 32 32h640.051c17.673 0 32-14.327 32-32 0-8.843-3.587-16.848-9.385-22.64z" glyph-name="caret-down-fill" unicode=""/><glyph d="M947.2 207.64 597.4 815.12c-17.525 29.455-49.194 48.883-85.4 48.883s-67.875-19.428-85.149-48.428l-.251-.455L76.8 207.64c-8.072-13.588-12.843-29.957-12.843-47.44s4.771-33.852 13.082-47.875l-.239.435c17.146-29.356 48.5-48.765 84.389-48.765q.534 0 1.066.006h699.546c.277-.003.604-.004.932-.004 35.888 0 67.242 19.409 84.139 48.304l.249.461c8.097 13.604 12.883 29.998 12.883 47.508 0 17.455-4.756 33.8-13.042 47.808l.239-.437zM480 544c0 17.673 14.327 32 32 32s32-14.327 32-32V384c0-17.673-14.327-32-32-32s-32 14.327-32 32zm32-352c-26.51 0-48 21.49-48 48s21.49 48 48 48 48-21.49 48-48-21.49-48-48-48" glyph-name="warning-fill" unicode=""/><glyph d="M512 864C282.25 864 96 677.75 96 448S282.25 32 512 32s416 186.25 416 416c-.25 229.65-186.35 415.75-415.976 416zm-32-224c0 17.673 14.327 32 32 32s32-14.327 32-32V416c0-17.673-14.327-32-32-32s-32 14.327-32 32zm32-416c-26.51 0-48 21.49-48 48s21.49 48 48 48 48-21.49 48-48-21.49-48-48-48" glyph-name="warning-circle-fill" unicode=""/><glyph d="M624 288h-93.88l-57.6-96h103.49c17.673 0 32-14.327 32-32a31.84 31.84 0 0 0-4.65-16.621l.08.141-96-160c-5.697-9.367-15.849-15.528-27.44-15.528-17.678 0-32.008 14.331-32.008 32.008a31.86 31.86 0 0 0 4.648 16.621l-.08-.141L519.48 128H415.99c-17.673 0-32 14.327-32 32a31.84 31.84 0 0 0 4.65 16.621l-.08-.141L455.48 288h-148C192.48 288 96.8 379.72 96 494.56c-.002.355-.003.775-.003 1.195 0 94.058 62.324 173.56 147.928 199.461l1.476.384c1.332.4 2.862.63 4.446.63 8.837 0 16-7.163 16-16 0-1.331-.162-2.624-.469-3.86l.023.11c-4.781-19.328-8.138-41.943-9.361-65.123l-.039-.917c-.039-.6-.062-1.3-.062-2.006 0-16.976 12.992-30.918 29.575-32.425l.126-.009h2.4c17.275.19 31.326 13.739 32.316 30.792l.004.088C328.512 768.248 461.335 896 623.996 896c167.895 0 304-136.105 304-304 0-167.893-136.103-303.998-303.996-304" glyph-name="cloud-lightning-fill" unicode=""/><glyph d="M704 864H320c-123.657-.137-223.863-100.343-224-223.987V256c.137-123.657 100.343-223.863 223.987-224H704c123.657.137 223.863 100.343 224 223.987V640c-.137 123.657-100.343 223.863-223.987 224zM512 256c-106.039 0-192 85.961-192 192s85.961 192 192 192 192-85.961 192-192c-.114-105.993-86.007-191.886-191.989-192zm240 384c-26.51 0-48 21.49-48 48s21.49 48 48 48 48-21.49 48-48-21.49-48-48-48M640 448c0-70.692-57.308-128-128-128s-128 57.308-128 128 57.308 128 128 128 128-57.308 128-128" glyph-name="instagram" unicode=""/><glyph d="M937.32 681.92c-7.899 30.195-29.359 54.167-57.313 65.371l-.647.229C742.24 800.48 524 800 512 800s-230.24.48-367.36-52.48c-28.601-11.433-50.061-35.405-57.811-64.931l-.149-.669C76.32 642 64 569.04 64 448s12.32-194 22.68-233.92c7.888-30.211 29.35-54.199 57.313-65.411l.647-.229C276 97.76 481.6 96 509.36 96h5.28c27.76 0 233.48 1.76 364.72 52.44 28.609 11.441 50.072 35.429 57.811 64.972l.149.668C947.68 254.08 960 326.96 960 448s-12.32 194-22.68 233.92m-294.96-260-160-112c-5.116-3.623-11.485-5.791-18.36-5.791-17.628 0-31.927 14.254-32 31.864V560c.005 17.669 14.33 31.991 32 31.991a31.85 31.85 0 0 0 18.46-5.858l-.1.067 160-112c8.285-5.863 13.627-15.408 13.627-26.2s-5.343-20.337-13.527-26.133l-.1-.067z" glyph-name="youtube" unicode=""/><glyph d="M860 80.6c-5.543-9.954-15.995-16.58-27.997-16.6H640c-11.301.004-21.233 5.865-26.924 14.713l-.076.127-161.96 254.52L215.68 74.48c-5.859-6.281-14.183-10.196-23.422-10.196-17.673 0-32 14.327-32 32a31.88 31.88 0 0 0 8.09 21.268l-.028-.032 247.08 272L165 782.8c-3.146 4.867-5.016 10.815-5.016 17.2 0 17.673 14.327 32 32 32h192.015c11.301-.004 21.233-5.865 26.924-14.713l.076-.127 161.96-254.52 235.36 258.88c5.859 6.281 14.183 10.196 23.422 10.196 17.673 0 32-14.327 32-32a31.88 31.88 0 0 0-8.09-21.268l.028.032-247.08-271.8 250.4-393.52c3.117-4.851 4.968-10.772 4.968-17.126a31.86 31.86 0 0 0-4.051-15.596l.083.162z" glyph-name="x-logo" unicode=""/><glyph d="M928 448c-.281-212.101-159.007-387.043-364.152-412.83l-2.048-.21a15 15 0 0 0-1.8-.102c-8.837 0-16 7.163-16 16v.107-.005V352h96.07c17.673 0 32 14.327 32 32q0 1.12-.076 2.219l.005-.099c-1.487 16.804-15.496 29.883-32.56 29.883q-.232 0-.463-.003h-94.977v96c0 35.346 28.654 64 64 64h64.07c17.673 0 32 14.327 32 32q0 1.12-.076 2.219l.005-.099c-1.486 16.805-15.496 29.884-32.56 29.884q-.274 0-.547-.004h-62.893c-70.692 0-128-57.308-128-128v-96h-96.07c-17.673 0-32-14.327-32-32q0-1.12.076-2.219l-.005.099c1.486-16.805 15.496-29.884 32.56-29.884q.274 0 .547.004h94.893V50.783c0-8.837-7.163-16-16-16q-.93 0-1.834.104l.074-.007C254.85 60.863 96.001 236.093 96.001 448.425q0 8.027.301 15.98l-.023-.765c8 216 182.96 391.6 399.12 400 4.808.199 10.451.312 16.12.312 229.83 0 416.179-186.163 416.48-415.923z" glyph-name="facebook" unicode=""/><glyph d="M864 864H160c-35.346 0-64-28.654-64-64V96c0-35.346 28.654-64 64-64h704c35.346 0 64 28.654 64 64v704c0 35.346-28.654 64-64 64M384 256c0-17.673-14.327-32-32-32s-32 14.327-32 32v256c0 17.673 14.327 32 32 32s32-14.327 32-32zm-32 320c-26.51 0-48 21.49-48 48s21.49 48 48 48 48-21.49 48-48-21.49-48-48-48m384-320c0-17.673-14.327-32-32-32s-32 14.327-32 32v144c0 44.183-35.817 80-80 80s-80-35.817-80-80V256c0-17.673-14.327-32-32-32s-32 14.327-32 32v256c.092 17.603 14.383 31.838 32 31.838 15.09 0 27.741-10.445 31.116-24.5l.044-.218c22.651 15.549 50.661 24.832 80.84 24.832 79.512 0 143.973-64.444 144-143.95v-.003z" glyph-name="linkedin" unicode=""/><glyph d="M512 864C282.25 864 96 677.75 96 448S282.25 32 512 32c86.04 0 176.4 25.92 241.72 69.32 8.665 5.82 14.292 15.583 14.292 26.66 0 17.68-14.332 32.012-32.012 32.012a31.87 31.87 0 0 1-17.835-5.424l.115.073C664 118.481 584.84 96.001 512 96.001c-194.404 0-352 157.596-352 352s157.596 352 352 352 352-157.596 352-352c0-105.8-43.52-128-80-128s-80 22.2-80 128v160c0 17.673-14.327 32-32 32s-32-14.327-32-32v-17.04c-33.834 30.432-78.829 49.045-128.171 49.045-106.039 0-192-85.961-192-192s85.961-192 192-192c61.606 0 116.436 29.015 151.568 74.126l.322.43c24-48 65.4-74.56 120.28-74.56 90.16 0 144 71.76 144 192-.25 229.65-186.35 415.75-415.976 416h-.024zm0-544c-70.692 0-128 57.308-128 128s57.308 128 128 128 128-57.308 128-128-57.308-128-128-128" glyph-name="at" unicode=""/><glyph d="M800 64H602.16c33.451 29.949 64.1 60.966 92.774 93.756L696 159c109.8 126.28 168 259.4 168 385 0 194.404-157.596 352-352 352S160 738.404 160 544c0-125.6 58.04-258.72 168-385 29.738-34.032 60.388-65.049 92.828-94.109L421.84 64H224c-17.673 0-32-14.327-32-32s14.327-32 32-32h576c17.673 0 32 14.327 32 32s-14.327 32-32 32M224 544c0 159.058 128.942 288 288 288s288-128.942 288-288c0-228.92-221.88-420-288-472-66.12 52-288 243.08-288 472m448 0c0 88.366-71.634 160-160 160s-160-71.634-160-160 71.634-160 160-160 160 71.634 160 160m-256 0c0 53.019 42.981 96 96 96s96-42.981 96-96-42.981-96-96-96-96 42.981-96 96" glyph-name="map-pin-line" unicode=""/><glyph d="M512 864C282.25 864 96 677.75 96 448S282.25 32 512 32s416 186.25 416 416c-.25 229.65-186.35 415.75-415.976 416zm0-768c-194.404 0-352 157.596-352 352s157.596 352 352 352 352-157.596 352-352c-.228-194.313-157.687-351.772-351.978-352zm182.64 374.64c5.798-5.792 9.385-13.797 9.385-22.64s-3.587-16.848-9.385-22.64l-128-128c-5.794-5.794-13.799-9.378-22.64-9.378-17.683 0-32.018 14.335-32.018 32.018 0 8.841 3.584 16.846 9.378 22.64l73.4 73.36H352c-17.673 0-32 14.327-32 32s14.327 32 32 32h242.76l-73.4 73.36c-5.794 5.794-9.378 13.799-9.378 22.64 0 17.683 14.335 32.018 32.018 32.018 8.841 0 16.846-3.584 22.64-9.378z" glyph-name="arrow-circle-right" unicode=""/><glyph d="M512 864C282.25 864 96 677.75 96 448S282.25 32 512 32s416 186.25 416 416c-.25 229.65-186.35 415.75-415.976 416zm0-768c-194.404 0-352 157.596-352 352s157.596 352 352 352 352-157.596 352-352c-.228-194.313-157.687-351.772-351.978-352zm192 352c0-17.673-14.327-32-32-32H429.24l73.4-73.36c5.794-5.794 9.378-13.799 9.378-22.64 0-17.683-14.335-32.018-32.018-32.018-8.841 0-16.846 3.584-22.64 9.378l-128 128c-5.798 5.792-9.385 13.797-9.385 22.64s3.587 16.848 9.385 22.64l128 128c5.794 5.794 13.799 9.378 22.64 9.378 17.683 0 32.018-14.335 32.018-32.018 0-8.841-3.584-16.846-9.378-22.64L429.24 480H672c17.673 0 32-14.327 32-32" glyph-name="arrow-circle-left" unicode=""/><glyph d="M512 864C282.25 864 96 677.75 96 448S282.25 32 512 32s416 186.25 416 416c-.25 229.65-186.35 415.75-415.976 416zM296.32 170c46.211 71.465 125.5 118.094 215.68 118.094s169.469-46.629 215.073-117.092l.607-1.002C668.793 123.856 593.649 96.003 512 96.003s-156.793 27.853-216.448 74.577zM384 480c0 70.692 57.308 128 128 128s128-57.308 128-128-57.308-128-128-128-128 57.308-128 128m391.04-265.64c-35.665 51.212-84.712 90.849-142.109 114.232l-2.131.768c44.751 35.474 73.2 89.831 73.2 150.833 0 106.039-85.961 192-192 192s-192-85.961-192-192c0-61.002 28.449-115.359 72.802-150.528l.398-.304c-59.528-24.151-108.575-63.788-143.555-113.962l-.685-1.038C193.744 276.241 160 358.315 160 448.271c0 194.404 157.596 352 352 352s352-157.596 352-352c0-89.956-33.744-172.03-89.264-234.257z" glyph-name="user-circle" unicode=""/><glyph d="M918.64 86.64 718.36 286.88c50.79 60.647 81.636 139.503 81.636 225.564 0 194.647-157.793 352.44-352.44 352.44s-352.44-157.793-352.44-352.44 157.793-352.44 352.44-352.44c86.061 0 164.917 30.846 226.116 82.086l-.552-.45L873.36 41.36c5.794-5.794 13.799-9.378 22.64-9.378 17.683 0 32.018 14.335 32.018 32.018 0 8.841-3.584 16.846-9.378 22.64M160 512c0 159.058 128.942 288 288 288s288-128.942 288-288-128.942-288-288-288c-158.985.182-287.818 129.015-288 287.983z" glyph-name="magnifying-glass" unicode=""/><glyph d="M896 448c0-17.673-14.327-32-32-32H160c-17.673 0-32 14.327-32 32s14.327 32 32 32h704c17.673 0 32-14.327 32-32M160 672h704c17.673 0 32 14.327 32 32s-14.327 32-32 32H160c-17.673 0-32-14.327-32-32s14.327-32 32-32m704-448H160c-17.673 0-32-14.327-32-32s14.327-32 32-32h704c17.673 0 32 14.327 32 32s-14.327 32-32 32" glyph-name="list" unicode=""/><glyph d="M822.64 182.64c5.794-5.794 9.378-13.799 9.378-22.64 0-17.683-14.335-32.018-32.018-32.018-8.841 0-16.846 3.584-22.64 9.378L512 402.76l-265.36-265.4c-5.794-5.794-13.799-9.378-22.64-9.378-17.683 0-32.018 14.335-32.018 32.018 0 8.841 3.584 16.846 9.378 22.64L466.76 448l-265.4 265.36c-5.794 5.794-9.378 13.799-9.378 22.64 0 17.683 14.335 32.018 32.018 32.018 8.841 0 16.846-3.584 22.64-9.378L512 493.24l265.36 265.4c5.794 5.794 13.799 9.378 22.64 9.378 17.683 0 32.018-14.335 32.018-32.018 0-8.841-3.584-16.846-9.378-22.64L557.24 448z" glyph-name="x" unicode=""/><glyph d="M662.64 553.36 557.24 448l105.4-105.36c5.794-5.794 9.378-13.799 9.378-22.64 0-17.683-14.335-32.018-32.018-32.018-8.841 0-16.846 3.584-22.64 9.378L512 402.76l-105.36-105.4c-5.794-5.794-13.799-9.378-22.64-9.378-17.683 0-32.018 14.335-32.018 32.018 0 8.841 3.584 16.846 9.378 22.64L466.76 448l-105.4 105.36c-5.794 5.794-9.378 13.799-9.378 22.64 0 17.683 14.335 32.018 32.018 32.018 8.841 0 16.846-3.584 22.64-9.378L512 493.24l105.36 105.4c5.794 5.794 13.799 9.378 22.64 9.378 17.683 0 32.018-14.335 32.018-32.018 0-8.841-3.584-16.846-9.378-22.64M928 448c0-229.75-186.25-416-416-416S96 218.25 96 448s186.25 416 416 416c229.65-.25 415.75-186.35 416-415.976zm-64 0c0 194.404-157.596 352-352 352S160 642.404 160 448 317.596 96 512 96c194.313.228 351.772 157.687 352 351.978z" glyph-name="x-circle" unicode=""/><glyph d="m886.64 425.36-288-288c-5.794-5.794-13.799-9.378-22.64-9.378-17.683 0-32.018 14.335-32.018 32.018 0 8.841 3.584 16.846 9.378 22.64L786.76 416H160c-17.673 0-32 14.327-32 32s14.327 32 32 32h626.76l-233.4 233.36c-5.794 5.794-9.378 13.799-9.378 22.64 0 17.683 14.335 32.018 32.018 32.018 8.841 0 16.846-3.584 22.64-9.378l288-288c5.798-5.792 9.385-13.797 9.385-22.64s-3.587-16.848-9.385-22.64" glyph-name="arrow-right" unicode=""/><glyph d="m877.24 525.28-320 320c-11.58 11.573-27.574 18.73-45.24 18.73s-33.66-7.157-45.24-18.731l-320-320C135.172 513.775 128 497.838 128 480.225v-.238.012-384c0-17.673 14.327-32 32-32h256c17.673 0 32 14.327 32 32v224h128v-224c0-17.673 14.327-32 32-32h256c17.673 0 32 14.327 32 32v384.226c0 17.613-7.173 33.55-18.757 45.05zM832 128H640v224c0 17.673-14.327 32-32 32H416c-17.673 0-32-14.327-32-32V128H192v352l320 320 320-320z" glyph-name="house" unicode=""/><glyph d="M960 128h-64v448c0 35.346-28.654 64-64 64H576v192.042c0 35.346-28.654 64-64 64-13.239 0-25.54-4.02-35.747-10.906l.227.145-320-213.28C139.208 660.358 128 640.869 128 618.763v-.128.007-490.64H64c-17.673 0-32-14.327-32-32s14.327-32 32-32h896c17.673 0 32 14.327 32 32s-14.327 32-32 32zM832 576V128H576v448zm-640 42.64L512 832V128H192zM448 512v-64c0-17.673-14.327-32-32-32s-32 14.327-32 32v64c0 17.673 14.327 32 32 32s32-14.327 32-32m-128 0v-64c0-17.673-14.327-32-32-32s-32 14.327-32 32v64c0 17.673 14.327 32 32 32s32-14.327 32-32m0-224v-64c0-17.673-14.327-32-32-32s-32 14.327-32 32v64c0 17.673 14.327 32 32 32s32-14.327 32-32m128 0v-64c0-17.673-14.327-32-32-32s-32 14.327-32 32v64c0 17.673 14.327 32 32 32s32-14.327 32-32" glyph-name="buildings" unicode=""/><glyph d="M929.6 502.04 353.28 854.6c-9.513 5.914-21.058 9.42-33.422 9.42-11.53 0-22.349-3.049-31.692-8.385l.314.165c-19.496-11.053-32.444-31.651-32.48-55.275V95.48C256.159 60.387 284.644 32 319.759 32h.254H320c12.367.006 23.916 3.503 33.716 9.559l-.276-.159L929.6 393.96c18.308 11.296 30.327 31.245 30.327 54s-12.019 42.704-30.054 53.844l-.272.156zM320 96.24V800l575.32-352z" glyph-name="play" unicode=""/><glyph d="M934.16 391.08c-5.793 5.805-13.803 9.396-22.651 9.396a32 32 0 0 1-9.576-1.457l.227.061c-30.508-9.564-65.587-15.074-101.954-15.074-194.581 0-352.32 157.739-352.32 352.32 0 36.367 5.51 71.447 15.741 104.45l-.666-2.496c.899 2.817 1.417 6.056 1.417 9.417 0 17.673-14.327 32-32 32-3.361 0-6.6-.518-9.644-1.479l.227.062c-86.604-27.07-158.947-78.831-210.892-146.977l-.748-1.023C159.066 661.493 127.61 574.42 127.61 480c0-229.75 186.25-416 416-416h.413-.022l1.27-.002c93.911 0 180.49 31.393 249.814 84.257l-1.005-.735c69.169 52.693 120.93 125.036 147.196 208.669l.804 2.971c.886 2.797 1.396 6.013 1.396 9.349 0 8.808-3.559 16.786-9.317 22.572zM755.6 198.64c-58.204-44.215-131.881-70.832-211.775-70.832-194.404 0-352 157.596-352 352 0 79.884 26.61 153.552 71.45 212.625l-.635-.872c33.212 43.555 75.226 78.66 123.562 103.067l2.038.933c-2.686-17.887-4.227-38.538-4.24-59.546v-.014c.25-229.65 186.35-415.75 415.976-416H800a427.6 427.6 0 0 1 61.981 4.517l-2.301-.277c-25.362-50.38-60.493-92.394-103.212-124.965l-.868-.635z" glyph-name="moon" unicode=""/><glyph d="M896 448c0-17.673-14.327-32-32-32H544V96c0-17.673-14.327-32-32-32s-32 14.327-32 32v320H160c-17.673 0-32 14.327-32 32s14.327 32 32 32h320v320c0 17.673 14.327 32 32 32s32-14.327 32-32V480h320c17.673 0 32-14.327 32-32" glyph-name="plus" unicode=""/><glyph d="M896 448c0-17.673-14.327-32-32-32H160c-17.673 0-32 14.327-32 32s14.327 32 32 32h704c17.673 0 32-14.327 32-32" glyph-name="minus" unicode=""/><glyph d="m854.64 553.36-320-320c-5.792-5.798-13.797-9.385-22.64-9.385s-16.848 3.587-22.64 9.385l-320 320c-5.794 5.794-9.378 13.799-9.378 22.64 0 17.683 14.335 32.018 32.018 32.018 8.841 0 16.846-3.584 22.64-9.378L512 301.24l297.36 297.4c5.794 5.794 13.799 9.378 22.64 9.378 17.683 0 32.018-14.335 32.018-32.018 0-8.841-3.584-16.846-9.378-22.64" glyph-name="caret-down" unicode=""/><glyph d="M662.64 150.64c5.794-5.794 9.378-13.799 9.378-22.64 0-17.683-14.335-32.018-32.018-32.018-8.841 0-16.846 3.584-22.64 9.378l-320 320c-5.798 5.792-9.385 13.797-9.385 22.64s3.587 16.848 9.385 22.64l320 320c5.794 5.794 13.799 9.378 22.64 9.378 17.683 0 32.018-14.335 32.018-32.018 0-8.841-3.584-16.846-9.378-22.64L365.24 448z" glyph-name="caret-left" unicode=""/><glyph d="m726.64 425.36-320-320c-5.794-5.794-13.799-9.378-22.64-9.378-17.683 0-32.018 14.335-32.018 32.018 0 8.841 3.584 16.846 9.378 22.64L658.76 448l-297.4 297.36c-5.794 5.794-9.378 13.799-9.378 22.64 0 17.683 14.335 32.018 32.018 32.018 8.841 0 16.846-3.584 22.64-9.378l320-320c5.798-5.792 9.385-13.797 9.385-22.64s-3.587-16.848-9.385-22.64" glyph-name="caret-right" unicode=""/><glyph d="M854.64 297.36c-5.792-5.798-13.797-9.385-22.64-9.385s-16.848 3.587-22.64 9.385L512 594.76l-297.36-297.4c-5.794-5.794-13.799-9.378-22.64-9.378-17.683 0-32.018 14.335-32.018 32.018 0 8.841 3.584 16.846 9.378 22.64l320 320c5.792 5.798 13.797 9.385 22.64 9.385s16.848-3.587 22.64-9.385l320-320c5.798-5.792 9.385-13.797 9.385-22.64s-3.587-16.848-9.385-22.64" glyph-name="caret-up" unicode=""/><glyph d="M577.08 776.28c3.773 13.776 16.181 23.732 30.913 23.732 2.947 0 5.801-.398 8.511-1.144l-.225.053c120.967-32.312 214.328-125.672 246.09-244.229l.55-2.411c.693-2.485 1.092-5.34 1.092-8.287 0-14.733-9.956-27.14-23.507-30.861l-.225-.053c-2.482-.679-5.333-1.072-8.275-1.08h-.005c-14.743 0-27.156 9.97-30.868 23.536l-.052.224c-26.353 98.751-102.569 174.967-199.353 200.872l-1.967.448c-13.795 3.761-23.769 16.177-23.769 30.923 0 2.944.397 5.794 1.142 8.501l-.053-.225zm-9.32-167.2c55.16-14.72 90.6-50.16 105.32-105.32C676.844 489.97 689.257 480 704 480a33 33 0 0 1 8.51 1.133l-.23-.053c13.776 3.773 23.732 16.181 23.732 30.913 0 2.947-.398 5.801-1.144 8.511l.053-.225c-20.48 76.64-74 130.16-150.64 150.64-2.478.689-5.323 1.084-8.26 1.084-17.675 0-32.004-14.329-32.004-32.004 0-14.738 9.962-27.149 23.52-30.867l.225-.053zm327.76-381.4C880.496 116.668 786.337 32 672.403 32h-.425.022C354.4 32 96 290.4 96 608v.403c0 113.934 84.669 208.092 194.518 222.988l1.163.129c2.329.3 5.023.472 7.757.472 26.144 0 48.627-15.677 58.562-38.143l.161-.409 84.48-188.6v-.48c3.336-7.499 5.279-16.249 5.279-25.452 0-12.982-3.865-25.061-10.507-35.149l.149.241c-.72-1.08-1.48-2.08-2.28-3.08l-83.28-98.72c29.96-60.88 93.64-124 155.32-154.04l97.36 82.84a32 32 0 0 0 2.882 2.166l.118.074c9.978 6.738 22.276 10.756 35.512 10.756 9.095 0 17.746-1.897 25.58-5.317l-.412.16.52-.24 188.44-84.44c22.937-10.07 38.666-32.584 38.666-58.772 0-2.717-.169-5.394-.498-8.021l.032.313zm-63.52 8h-.44l-188 84.2-97.4-82.84a34 34 0 0 0-2.843-2.165l-.117-.075c-9.98-6.741-22.28-10.761-35.519-10.761-9.987 0-19.44 2.288-27.863 6.367l.381-.167c-74.92 36.2-149.6 110.32-185.84 184.44-4.026 8.14-6.381 17.724-6.381 27.857 0 12.996 3.874 25.088 10.53 35.183l-.149-.24a24.6 24.6 0 0 0 2.305 3.109l-.025-.029 83.36 98.84-84 188a2.2 2.2 0 0 0 .001.49l-.001-.01c-79.407-10.654-140.001-77.975-140.001-159.449l.001-.454v.023c.319-282.642 229.359-511.682 511.97-512h.03l.553-.001c81.383 0 148.648 60.443 159.354 138.887l.093.834z" glyph-name="phone-call" unicode=""/><glyph d="m855.4 458.16-448-480c-5.854-6.235-14.148-10.12-23.351-10.12-17.673 0-32 14.327-32 32 0 2.165.215 4.28.625 6.324l-.034-.204 58.64 293.32-230.52 86.56c-12.247 4.675-20.789 16.326-20.789 29.972a31.9 31.9 0 0 0 8.802 22.042l-.013-.014 448 480c5.854 6.235 14.148 10.12 23.351 10.12 17.673 0 32-14.327 32-32 0-2.165-.215-4.28-.625-6.324l.034.204-58.8-293.64 230.52-86.44c12.174-4.712 20.65-16.326 20.65-29.919a31.9 31.9 0 0 0-8.666-21.898l.016.017z" glyph-name="lightning-fill" unicode=""/></font>
</defs>
</svg>
